<svg width="208" height="31" viewBox="0 0 208 31" fill="none" xmlns="http://www.w3.org/2000/svg">
<path d="M0.00358495 30.7804L14.1677 9.77457L14.347 9.51453H2.8106V0.223985C2.8106 0.223985 32.4403 0.213854 33.0138 0.223985L32.7987 0.551569C30.7051 0.973713 28.0057 1.01424 26.2419 0.247625C26.1702 0.217231 24.4709 0.669769 24.4422 0.676523C25.679 1.11893 26.8836 1.55796 28.0236 1.75383C29.393 1.98686 30.7625 1.92945 32.0101 1.72682L31.5512 2.41238C29.9308 2.61501 28.4287 2.55422 27.1704 2.26378C25.9013 1.96997 24.7003 1.47015 23.399 1.01424C23.399 1.01424 21.9973 1.59511 22.1335 1.56471C24.2271 2.13545 26.1953 3.09794 28.0272 3.40864C28.97 3.56736 29.9093 3.59438 30.8091 3.52346L30.3789 4.1685C29.2066 4.22591 28.124 4.13473 27.174 3.91859C25.3098 3.48631 23.5567 2.52382 21.2122 2.05102C21.2122 2.05102 19.8499 2.81426 19.961 2.82101C22.9222 3.05404 25.5571 4.64468 28.0272 5.06344C28.5828 5.158 29.1349 5.20528 29.6798 5.21204L29.264 5.83343C28.5147 5.80979 27.8121 5.72199 27.1704 5.57339C24.6143 4.98239 22.3665 3.51671 19.0576 3.44916L17.7778 4.55012C18.2116 4.48595 18.6597 4.4488 19.1221 4.44205C22.2877 4.40152 25.3385 6.26233 28.02 6.71825C28.2172 6.75202 28.4108 6.77903 28.6079 6.7993L28.1993 7.40719C27.8408 7.36328 27.4966 7.30249 27.1668 7.2282C24.5175 6.61693 22.198 5.06344 18.6812 5.10397C18.1184 5.11072 17.5734 5.18502 17.0465 5.30997L16.5768 5.83681L15.9315 6.65746C16.9031 6.32312 17.9678 6.11036 19.1221 6.09685C22.1263 6.05632 25.0266 7.73477 27.6077 8.292L27.2134 8.89313C27.2134 8.89313 27.1811 8.88638 27.1668 8.883C24.5175 8.26836 22.198 6.71825 18.6812 6.75877C17.4659 6.77228 16.3295 7.09986 15.2898 7.59968L14.9672 8.1434L14.5621 8.89651C15.867 8.23796 17.3942 7.77529 19.1221 7.75165C21.7643 7.71788 24.3311 9.01133 26.6685 9.70365L26.2741 10.298C23.9762 9.5922 21.8001 8.3798 18.6812 8.41695C16.9783 8.43722 15.4296 9.06537 14.096 9.92992L13.9025 10.4297L13.7017 11.0342C15.1823 10.1292 16.9999 9.43685 19.1221 9.40983C21.4273 9.37944 23.675 10.3622 25.7615 11.0714L25.36 11.6523C23.3811 10.9498 21.3843 10.0414 18.6812 10.0718C16.6808 10.0954 14.8919 10.9599 13.4149 12.0609L13.293 12.5979L13.2213 12.9997C14.7808 11.9461 16.7632 11.0984 19.1221 11.0646C21.101 11.0376 23.0333 11.757 24.8617 12.4121L24.4781 12.9862C22.7716 12.3581 20.9827 11.7029 18.6812 11.7299C16.5302 11.7536 14.6266 12.7532 13.0851 13.969L13.0528 14.3439L13.0241 14.7896C14.6123 13.6786 16.6629 12.7566 19.1186 12.7228C20.7784 12.7026 22.406 13.2024 23.9654 13.7529L23.5782 14.3202C22.1335 13.8103 20.5812 13.3645 18.6776 13.3881C16.4908 13.4151 14.5513 14.4485 12.999 15.6947L13.0098 16.1169L13.0313 16.4444C14.6159 15.3334 16.6629 14.4148 19.115 14.3844C20.4557 14.3675 21.7786 14.6917 23.062 15.1071L22.6748 15.6778C21.481 15.3063 20.1905 15.0294 18.674 15.0463C16.5374 15.0699 14.641 16.0594 13.1066 17.2651L13.1424 17.5859L13.207 17.9777C14.77 16.924 16.7489 16.073 19.115 16.0392C20.1367 16.0257 21.1476 16.2114 22.1371 16.485L21.7427 17.0726C20.8107 16.8396 19.8033 16.6876 18.674 16.7045C16.6521 16.7281 14.8453 17.6129 13.354 18.7308C13.354 18.7308 13.4328 19.0921 13.4472 19.136C13.4615 19.1799 13.5296 19.4265 13.5296 19.4265C15.0353 18.4707 16.9102 17.7278 19.115 17.7007C19.8105 17.6906 20.5024 17.775 21.1871 17.9135L20.7712 18.5281C20.1188 18.4167 19.4233 18.3525 18.674 18.3627C16.8206 18.3829 15.1464 19.1293 13.7375 20.112C13.7375 20.112 13.8308 20.3754 13.8451 20.4261C13.8594 20.4768 13.9849 20.8077 13.9849 20.8077C15.4117 19.9871 17.1289 19.3792 19.1186 19.3555C19.4735 19.3522 19.832 19.3724 20.1869 19.4096L19.7603 20.0546C19.4125 20.0242 19.0504 20.0107 18.6776 20.0175C17.0429 20.0377 15.5479 20.6186 14.2466 21.4325C14.2466 21.4325 14.3828 21.7364 14.4043 21.7837C14.4223 21.831 14.58 22.1451 14.58 22.1451C15.8778 21.4899 17.3978 21.034 19.1186 21.0103L18.8963 21.3447L21.6997 21.3379C23.9332 21.8884 26.0734 22.9556 28.0164 23.2865C29.2389 23.4926 30.4506 23.4723 31.5834 23.3203V23.9417C29.9487 24.1511 28.4323 24.0937 27.1632 23.7999C24.5139 23.1852 22.1945 21.6351 18.6776 21.6723C17.301 21.6892 16.0247 22.1045 14.8811 22.7192C14.8811 22.7192 15.0353 22.9725 15.064 23.0333C15.0927 23.094 15.3221 23.4622 15.3221 23.4622C16.4478 22.9927 17.7168 22.6854 19.1186 22.6685C22.2841 22.628 25.3349 24.4888 28.0164 24.9447C29.2425 25.1507 30.4542 25.1305 31.5906 24.9751L31.5834 25.5965C29.9487 25.8093 28.4323 25.7451 27.1632 25.4513C24.5139 24.8367 22.1945 23.2865 18.6776 23.3271C17.6129 23.3406 16.6055 23.5905 15.6734 23.989C15.6734 23.989 15.8563 24.2592 15.91 24.3301C15.9638 24.4044 16.2542 24.7725 16.2542 24.7725C17.1361 24.5023 18.0897 24.3301 19.1186 24.3166C22.2841 24.2761 25.3349 26.1402 28.0164 26.5928C29.2389 26.7988 30.447 26.7785 31.5834 26.6232V27.2446C29.9487 27.4539 28.4323 27.3932 27.1632 27.1027C24.5139 26.4881 22.1945 24.9346 18.6776 24.9785C17.9857 24.9886 17.3189 25.0967 16.6808 25.2824C16.6808 25.2824 16.9927 25.6303 17.0034 25.6472C17.0142 25.6607 17.4623 26.1402 17.4623 26.1402C17.9893 26.0457 18.5486 25.9815 19.1186 25.9748C22.2841 25.9342 25.3349 27.795 28.0164 28.251C29.2389 28.457 30.447 28.4367 31.5834 28.2814V28.9061C29.9451 29.1121 28.4323 29.0547 27.1632 28.7609C24.5139 28.1463 22.1945 26.5928 18.6776 26.6333C18.4589 26.6367 18.2402 26.6502 18.0251 26.6705C18.0251 26.6705 18.4267 27.0352 18.4518 27.0521C18.4733 27.0656 19.1723 27.6262 19.1723 27.6262C22.3163 27.6059 25.3456 29.4498 28.0164 29.9024C29.2389 30.1084 30.447 30.0881 31.5834 29.9328V30.5542C29.9487 30.7636 28.4323 30.7028 27.1632 30.409C24.9262 29.8923 22.9258 28.7069 20.2478 28.3725C20.2478 28.3725 21.3197 29.0007 21.3878 29.0378C21.4559 29.075 23.0297 29.8484 23.6535 30.0408C24.2809 30.2333 26.3888 30.7771 26.4283 30.7771C26.4677 30.7771 0 30.7771 0 30.7771" fill="#EF3E42"/>
<path d="M27.0307 21.3414C27.3928 21.4394 27.6975 21.5069 28.0489 21.5643C29.2642 21.7703 30.4651 21.7501 31.5908 21.6015V22.2229C29.9668 22.4289 28.4576 22.3681 27.1956 22.0743C26.3962 21.8885 25.6254 21.6184 24.8475 21.3313L27.0343 21.3414H27.0307Z" fill="#EF3E42"/>
<path d="M94.4488 0.219971L80.7959 21.3757H93.0863V30.7798H62.6726L76.3254 9.49905C75.2326 9.49905 65.3691 9.49905 65.3691 9.49905V0.219971H94.463H94.4488Z" fill="#00529B"/>
<path d="M119.441 9.96467C123.134 9.96467 125.424 12.6024 125.424 15.7459C125.424 19.1217 122.957 21.4451 119.441 21.4451C115.926 21.4451 113.459 19.1217 113.459 15.7459C113.459 12.6024 115.748 9.96467 119.441 9.96467ZM119.441 0.219971C109.706 0.219971 101.73 6.27453 101.73 15.5819C101.73 24.8892 109.677 30.7798 119.441 30.7798C129.206 30.7798 137.153 25.0942 137.153 15.5819C137.153 6.06952 129.161 0.219971 119.441 0.219971Z" fill="#00529B"/>
<path d="M147.144 0.219971H157.273L166.12 16.1067V0.219971H176.209V30.7798H166.12L157.234 15.3482V30.7798H147.144V0.219971Z" fill="#00529B"/>
<path d="M197.101 0.219971H187.109V30.7798H197.101V0.219971Z" fill="#00529B"/>
<path d="M208 3.69924C208 5.65136 206.409 7.20508 204.374 7.20508C202.338 7.20508 200.734 5.65136 200.734 3.69924C200.734 1.74713 202.351 0.219971 204.401 0.219971C206.45 0.219971 208 1.74713 208 3.69924ZM201.637 3.69924C201.637 5.25296 202.823 6.47469 204.401 6.47469C205.937 6.50125 207.097 5.23968 207.097 3.71252C207.097 2.18536 205.937 0.910509 204.36 0.910509C202.783 0.910509 201.65 2.1588 201.65 3.68596M203.821 5.492H202.998V2.01272C203.322 1.97289 203.78 1.90648 204.36 1.90648C205.034 1.90648 205.331 2.01273 205.573 2.18536C205.789 2.33144 205.937 2.58375 205.937 2.92902C205.937 3.35397 205.614 3.63285 205.209 3.75236V3.7922C205.56 3.89844 205.722 4.17731 205.83 4.6421C205.937 5.17329 206.018 5.3592 206.086 5.492H205.223C205.115 5.3592 205.048 5.06705 204.94 4.6421C204.872 4.28355 204.657 4.11091 204.212 4.11091H203.821V5.492ZM203.848 3.53989H204.239C204.697 3.53989 205.061 3.39381 205.061 3.03526C205.061 2.71655 204.818 2.50407 204.306 2.50407C204.09 2.50407 203.942 2.53063 203.848 2.54391V3.53989Z" fill="#00529B"/>
</svg>
